<svg width="21" height="21" viewBox="0 0 21 21" fill="none" xmlns="http://www.w3.org/2000/svg">
<path d="M20.9211 0.499533C21.0928 0.222792 20.9748 0 20.6584 0H13.2752C13.1012 0.00993072 12.9314 0.0598633 12.7781 0.146223C12.6247 0.232592 12.4916 0.35325 12.3883 0.499533L4.13061 13.8131C4.04604 13.9666 4.00107 14.1403 4.00002 14.3173C3.99906 14.4944 4.04201 14.6686 4.12486 14.8231L7.74167 20.7906C7.91043 21.0693 8.18945 21.0703 8.36109 20.7906L20.9211 0.499533Z" fill="white"/>
<path d="M7.7137 0C7.97834 0 8.07779 0.201181 7.93423 0.443129L4.21634 6.81621C4.07359 7.06171 3.84022 7.06082 3.69907 6.81621L0.0637897 0.449333C-0.0773557 0.202067 0.0236918 0 0.288339 0H7.7137Z" fill="white"/>
</svg>
