<svg width="38" height="20" viewBox="0 0 38 20" fill="none" xmlns="http://www.w3.org/2000/svg">
<path d="M37.5646 8.94927C37.5642 8.94883 37.5638 8.94831 37.5633 8.94786L29.8071 1.22912C29.2261 0.650882 28.2862 0.653034 27.7079 1.23417C27.1296 1.81522 27.1318 2.75506 27.7128 3.33337L32.9203 8.51561H1.48438C0.664555 8.51561 0 9.18017 0 9.99999C0 10.8198 0.664555 11.4844 1.48438 11.4844H32.9202L27.7129 16.6666C27.1319 17.2449 27.1296 18.1848 27.7079 18.7658C28.2863 19.347 29.2262 19.349 29.8072 18.7709L37.5634 11.0521C37.5638 11.0517 37.5642 11.0511 37.5647 11.0507C38.1461 10.4705 38.1442 9.52759 37.5646 8.94927Z" fill="#000"/>
</svg>
