<svg width="34" height="34" viewBox="0 0 34 34" fill="none" xmlns="http://www.w3.org/2000/svg">
<g clip-path="url(#clip0)">
<path d="M34 16.9997L30.151 12.7264L30.7537 7.00547L25.1255 5.81395L22.2546 0.82666L17 3.175L11.7455 0.82666L8.87454 5.81395L3.24638 7.00547L3.84896 12.7264L0 16.9997L3.84889 21.2731L3.24631 26.994L8.87447 28.1855L11.7454 33.1728L17 30.8244L22.2545 33.1728L25.1255 28.1855L30.7536 26.994L30.151 21.2731L34 16.9997ZM24.1268 13.2774L15.5935 22.8378L9.66375 16.908L11.0741 15.4976L15.5111 19.9346L22.6388 11.9492L24.1268 13.2774Z" fill="#000"/>
</g>
<defs>
<clipPath id="clip0">
<rect width="34" height="34" fill="white"/>
</clipPath>
</defs>
</svg>
