<svg width="28" height="27" viewBox="0 0 28 27" fill="none" xmlns="http://www.w3.org/2000/svg">
<g clip-path="url(#clip0)">
<path d="M18.9336 15.8841L15.1691 13.0607V7.30939C15.1691 6.73111 14.7016 6.26367 14.1234 6.26367C13.5451 6.26367 13.0776 6.73111 13.0776 7.30939V13.5836C13.0776 13.913 13.2324 14.2236 13.4959 14.4202L17.6787 17.5573C17.8669 17.6985 18.0866 17.7665 18.3051 17.7665C18.624 17.7665 18.9378 17.6232 19.1427 17.3471C19.49 16.8859 19.3959 16.2303 18.9336 15.8841Z" fill="#000"/>
<path d="M14.1235 0C6.67918 0 0.623535 6.05565 0.623535 13.5C0.623535 20.9444 6.67918 27 14.1235 27C21.5679 27 27.6235 20.9444 27.6235 13.5C27.6235 6.05565 21.5679 0 14.1235 0ZM14.1235 24.9086C7.83364 24.9086 2.71493 19.7899 2.71493 13.5C2.71493 7.21011 7.83364 2.09139 14.1235 2.09139C20.4145 2.09139 25.5321 7.21011 25.5321 13.5C25.5321 19.7899 20.4134 24.9086 14.1235 24.9086Z" fill="#000"/>
</g>
<defs>
<clipPath id="clip0">
<rect width="27" height="27" fill="white" transform="translate(0.623535)"/>
</clipPath>
</defs>
</svg>
