<svg width="22" height="20" viewBox="0 0 22 20" fill="none" xmlns="http://www.w3.org/2000/svg">
<g clip-path="url(#clip0)">
<path d="M0 4H22" stroke="black" stroke-width="2"/>
<path d="M0 16H22" stroke="black" stroke-width="2"/>
<path d="M8 8C10.2091 8 12 6.20914 12 4C12 1.79086 10.2091 0 8 0C5.79086 0 4 1.79086 4 4C4 6.20914 5.79086 8 8 8Z" fill="white"/>
<path d="M8 7C9.65685 7 11 5.65685 11 4C11 2.34315 9.65685 1 8 1C6.34315 1 5 2.34315 5 4C5 5.65685 6.34315 7 8 7Z" stroke="black" stroke-width="2"/>
<path d="M14 20C16.2091 20 18 18.2091 18 16C18 13.7909 16.2091 12 14 12C11.7909 12 10 13.7909 10 16C10 18.2091 11.7909 20 14 20Z" fill="white"/>
<path d="M14 19C15.6569 19 17 17.6569 17 16C17 14.3431 15.6569 13 14 13C12.3431 13 11 14.3431 11 16C11 17.6569 12.3431 19 14 19Z" stroke="black" stroke-width="2"/>
</g>
<defs>
<clipPath id="clip0">
<rect width="22" height="20" fill="white"/>
</clipPath>
</defs>
</svg>
