<svg width="23" height="21" viewBox="0 0 23 21" fill="none" xmlns="http://www.w3.org/2000/svg">
<path d="M12.0573 17.4607L16.3099 1.58984C16.3483 1.44863 16.2979 1.29745 16.1809 1.20818C16.0646 1.11856 15.9052 1.10827 15.7782 1.18161L1.3145 9.53224C1.18495 9.60704 1.115 9.75307 1.13718 9.90042C1.14352 9.94625 1.15909 9.98922 1.18161 10.0282C1.23098 10.1137 1.31486 10.1777 1.4151 10.2003L8.0227 11.7114L11.3927 17.5484C11.4661 17.6754 11.6086 17.7466 11.7538 17.7265C11.8997 17.7076 12.0193 17.6025 12.0573 17.4607ZM8.57245 11.2112C8.52199 11.1238 8.43722 11.0612 8.33896 11.0391L2.47812 9.69888L15.3823 2.24867L11.5834 16.4263L8.57245 11.2112Z" fill="black" stroke="black" stroke-width="0.5"/>
</svg>
