<svg width="22" height="22" viewBox="0 0 22 22" fill="none" xmlns="http://www.w3.org/2000/svg">
<path d="M21.9427 8.43909C21.7986 7.99362 21.4035 7.67722 20.9361 7.63509L14.5862 7.05852L12.0754 1.18155C11.8902 0.750846 11.4686 0.472046 11.0001 0.472046C10.5316 0.472046 10.11 0.750846 9.92486 1.18256L7.41398 7.05852L1.06317 7.63509C0.59654 7.67822 0.202426 7.99362 0.0575701 8.43909C-0.0872853 8.88457 0.0464919 9.37318 0.399483 9.68119L5.19918 13.8906L3.78386 20.125C3.6803 20.5834 3.85822 21.0573 4.23857 21.3322C4.44301 21.4799 4.6822 21.5551 4.9234 21.5551C5.13137 21.5551 5.33766 21.4991 5.5228 21.3883L11.0001 18.1147L16.4754 21.3883C16.8761 21.6293 17.3811 21.6073 17.7606 21.3322C18.1412 21.0565 18.3189 20.5824 18.2154 20.125L16.8 13.8906L21.5997 9.68203C21.9527 9.37318 22.0875 8.88541 21.9427 8.43909Z" fill="#000"/>
</svg>
